HIERARCHY
ROOT Hips
{
  OFFSET 70.0231 56.77 366.064
  CHANNELS 6 Xposition Yposition Zposition Zrotation Xrotation Yrotation
  JOINT RightUpLeg
  {
    OFFSET -8.9458 -8.66707 0.101652
    CHANNELS 3 Zrotation Xrotation Yrotation
    JOINT RightLeg
    {
      OFFSET 0 -44.4227 1.3727
      CHANNELS 3 Zrotation Xrotation Yrotation
      JOINT RightFoot
      {
        OFFSET 0.253549 -42.0924 -1.46059
        CHANNELS 3 Zrotation Xrotation Yrotation
        JOINT RightToes
        {
          OFFSET 0.04 -4.41509 8.4991
          CHANNELS 3 Zrotation Xrotation Yrotation
          End Site
          {
            OFFSET -0.08 -0.137448 9.77979
          }
        }
      }
    }
  }
  JOINT Spine
  {
    OFFSET 0 11.8905 0
    CHANNELS 3 Zrotation Xrotation Yrotation
    JOINT Spine1
    {
      OFFSET 0 25.6574 0.127663
      CHANNELS 3 Zrotation Xrotation Yrotation
      JOINT HEad
      {
        OFFSET 0 8.73416 0.011341
        CHANNELS 3 Zrotation Xrotation Yrotation
        End Site
        {
          OFFSET -0.29 12.7742 2.51395
        }
      }
      JOINT LeftShoulder1
      {
        OFFSET 8.99 -0.362252 -0.22
        CHANNELS 3 Zrotation Xrotation Yrotation
        JOINT LeftArm
        {
          OFFSET 10.2827 -0.00338 0.322123
          CHANNELS 3 Zrotation Xrotation Yrotation
          JOINT LeftForeArm
          {
            OFFSET 32.7669 0.099144 -1.42434
            CHANNELS 3 Zrotation Xrotation Yrotation
            JOINT LeftHand
            {
              OFFSET 27.5643 0.085362 1.02216
              CHANNELS 3 Zrotation Xrotation Yrotation
              End Site
              {
                OFFSET 16.7443 -0.6 1.50291
              }
            }
          }
        }
      }
      JOINT RightShoulder
      {
        OFFSET -8.99 -0.362252 -0.22
        CHANNELS 3 Zrotation Xrotation Yrotation
        JOINT RightArm
        {
          OFFSET -10.2827 -0.00338 0.322123
          CHANNELS 3 Zrotation Xrotation Yrotation
          JOINT RightForeArm
          {
            OFFSET -32.8971 0.099144 -1.42434
            CHANNELS 3 Zrotation Xrotation Yrotation
            JOINT RightHand
            {
              OFFSET -27.4921 0.085362 1.02216
              CHANNELS 3 Zrotation Xrotation Yrotation
              End Site
              {
                OFFSET -16.6312 -0.6 1.50291
              }
            }
          }
        }
      }
    }
  }
  JOINT LeftUpLeg
  {
    OFFSET 8.9458 -8.66707 0.101652
    CHANNELS 3 Zrotation Xrotation Yrotation
    JOINT LeftLeg
    {
      OFFSET 0 -44.4227 1.3727
      CHANNELS 3 Zrotation Xrotation Yrotation
      JOINT LeftFoot
      {
        OFFSET -0.253549 -42.0924 -1.46059
        CHANNELS 3 Zrotation Xrotation Yrotation
        JOINT LeftToes
        {
          OFFSET -0.04 -4.41509 8.4991
          CHANNELS 3 Zrotation Xrotation Yrotation
          End Site
          {
            OFFSET 0.08 -0.047448 9.77979
          }
        }
      }
    }
  }
}
MOTION
Frames:	10
Frame Time:	0.0166667
0	104.036	0	0.952889	3.24374	161.808	-0.178959	0.543285	-23.2026	3.4201	12.684	-14.8592	1.66436	-8.70199	-5.16092	4.62E-02	5.34E-04	0.662642	-0.125962	-2.77671	-1.07481	-0.304657	-5.54777	-2.15978	2.63357	20.7878	13.0086	7.95E-16	-3.18E-15	0.00E+00	-0.839989	-11.9053	-7.82125	-1.44592	12.7346	-8.3801	4.03381	12.4463	2.80067	7.95E-16	-3.18E-15	0.00E+00	0.33502	-14.8252	-0.523964	-0.544184	18.1948	-4.25396	1.58135	12.5446	-8.24544	-5.15E+00	5.02E+00	-19.9975	7.26292	11.1629	-32.8212	-3.02362	-16.8472	-8.42486	1.35E-14	3.34E-14	4.77E-15
0.011	104.036	-0.009	0.961671	3.23311	161.792	-0.158926	0.535484	-23.196	3.41818	12.6843	-14.8547	1.66146	-8.69788	-5.1592	4.62E-02	5.34E-04	6.63E-01	-0.12324	-2.77942	-1.07574	-0.299301	-5.55324	-2.16153	2.60935	20.7927	13.0296	7.95E-16	1.59E-15	6.36E-15	-0.813085	-11.9246	-7.82903	-1.46348	12.7329	-8.38356	4.01501	12.4562	2.8123	7.95E-16	1.59E-15	6.36E-15	0.301364	-14.8316	-0.517231	-0.531992	18.1966	-4.25879	1.57918	12.5257	-8.2572	-5.13E+00	5.02515	-2.00E+01	7.2707	11.1553	-32.8377	-3.02605	-16.849	-8.39381	1.35E-14	3.00E-14	6.36E-15
0.024	104.037	-0.013	0.966022	3.21913	161.776	-0.147693	0.531882	-23.1974	3.42337	12.6819	-14.846	1.65956	-8.69615	-5.16209	4.62E-02	5.34E-04	6.63E-01	-0.12356	-2.78094	-1.07517	-0.298646	-5.55572	-2.16108	2.58954	20.778	13.0413	-7.95E-16	-3.18E-15	0.00E+00	-0.812966	-11.9609	-7.84057	-1.45291	12.7481	-8.38927	3.95581	12.4939	2.83889	-7.95E-16	-3.18E-15	0.00E+00	0.260911	-14.8436	-0.52498	-0.53072	18.1781	-4.2593	1.58315	12.5232	-8.26113	-5.12E+00	5.02344	-19.958	7.28212	11.1503	-32.8429	-3.03423	-16.8472	-8.39049	1.59E-14	3.06E-14	4.77E-15
0.037	104.038	-0.024	0.967257	3.20801	161.765	-0.138727	0.526913	-23.2017	3.42688	12.6795	-14.8295	1.6533	-8.69458	-5.19611	4.62E-02	5.34E-04	6.63E-01	-0.124811	-2.78191	-1.07397	-0.2999	-5.55705	-2.15975	2.59772	20.7567	13.0491	1.59E-15	-3.18E-15	0.00E+00	-0.797955	-11.9902	-7.84265	-1.43061	12.7679	-8.3964	3.90262	12.5183	2.87488	1.59E-15	-3.18E-15	0.00E+00	0.238168	-14.8646	-0.532244	-0.541181	18.1561	-4.25516	1.58905	12.5243	-8.26481	-5.11E+00	5.02E+00	-2.00E+01	7.28929	11.1455	-32.8392	-3.04322	-16.8452	-8.38477	1.59E-14	3.04E-14	4.77E-15
0.051	104.038	-0.028	0.967892	3.19179	161.752	-0.131895	0.524588	-23.2035	3.43206	12.6771	-14.8143	1.66138	-8.6945	-5.13754	4.62E-02	5.34E-04	6.63E-01	-0.125854	-2.78301	-1.07299	-0.302332	-5.55934	-2.15763	2.61321	20.7345	13.0531	1.59E-15	0.00E+00	3.18E-15	-0.780145	-11.9984	-7.84632	-1.40516	12.7618	-8.40507	3.89274	12.533	2.92251	1.59E-15	0.00E+00	3.18E-15	0.230224	-14.9132	-0.542007	-0.56148	18.1538	-4.24712	1.59851	12.5408	-8.26853	-5.09892	5.01853	-2.00E+01	7.29209	11.1412	-32.8283	-3.05273	-16.8439	-8.37714	1.35E-14	3.48E-14	1.59E-15
0.064	104.039	-0.04	0.968143	3.17472	161.737	-0.116759	0.510522	-23.198	3.43163	12.6737	-14.808	1.65693	-8.69343	-5.164	4.62E-02	5.34E-04	6.63E-01	-0.126954	-2.78494	-1.07241	-0.305193	-5.56424	-2.15479	2.61535	20.7157	13.0623	-1.59E-15	1.59E-15	0.00E+00	-0.775105	-12.003	-7.85352	-1.38551	12.7274	-8.41352	3.92299	12.5309	2.95953	-1.59E-15	1.59E-15	0.00E+00	0.225666	-14.9732	-0.548356	-0.577708	18.1682	-4.24069	1.62834	12.5689	-8.27051	-5.09E+00	5.02E+00	-2.00E+01	7.29538	11.1361	-32.8251	-3.05493	-16.843	-8.35392	1.43E-14	3.26E-14	4.77E-15
0.078	104.04	-0.047	0.971511	3.16131	161.714	-0.101958	0.505715	-23.1774	3.43072	12.6685	-14.8099	1.65114	-8.69229	-5.2012	4.62E-02	5.34E-04	6.63E-01	-0.127986	-2.78874	-1.07188	-0.30756	-5.57183	-2.15015	2.61813	20.7008	13.0685	-1.59E-15	-3.18E-15	-3.18E-15	-0.76867	-12.0199	-7.85829	-1.38163	12.7101	-8.42186	3.94523	12.5124	2.97244	-1.59E-15	-3.18E-15	-3.18E-15	0.220677	-15.0227	-0.557445	-0.597288	18.1612	-4.23294	1.67244	12.6089	-8.26807	-5.07E+00	5.02E+00	-2.00E+01	7.29602	11.127	-32.8216	-3.05703	-16.842	-8.33681	1.51E-14	3.22E-14	4.77E-15
0.092	104.041	-0.054	0.97252	3.15222	161.687	-0.0882664	0.506673	-23.1627	3.42863	12.6582	-14.8075	1.6546	-8.69197	-5.17892	4.62E-02	5.34E-04	6.63E-01	-0.128957	-2.79063	-1.0714	-0.309624	-5.57823	-2.14455	2.62605	20.6915	13.0715	0.00E+00	0.00E+00	0.00E+00	-0.753667	-12.0407	-7.85119	-1.3778	12.7141	-8.43905	3.91887	12.5136	2.98377	0.00E+00	0.00E+00	0.00E+00	0.214906	-15.0514	-0.562387	-0.614607	18.1207	-4.22609	1.71636	12.6491	-8.25861	-5.06E+00	5.02E+00	-2.00E+01	7.2998	11.1184	-32.8182	-3.05793	-16.842	-8.30065	1.27E-14	3.20E-14	3.18E-15
0.107	104.042	-0.065	0.971857	3.14343	161.665	-0.0774834	0.509729	-23.1554	3.42993	12.6485	-14.7961	1.65253	-8.69108	-5.19476	4.62E-02	5.34E-04	6.63E-01	-0.129976	-2.79227	-1.07096	-0.311674	-5.58486	-2.14055	2.63147	20.6926	13.0737	1.59E-15	3.18E-15	6.36E-15	-0.747976	-12.0546	-7.83774	-1.3615	12.7218	-8.45076	3.88802	12.5537	2.99582	1.59E-15	3.18E-15	6.36E-15	0.209489	-15.0577	-0.563292	-0.617678	18.079	-4.22488	1.7586	12.6777	-8.25499	-5.06E+00	5.02E+00	-19.9731	7.3094	11.1143	-32.8148	-3.06362	-16.8416	-8.29044	1.27E-14	3.12E-14	4.77E-15
0.121	104.043	-0.078	0.970697	3.13742	161.648	-0.0721685	0.513368	-23.1484	3.43297	12.6407	-14.7894	1.64578	-8.68961	-5.24286	4.62E-02	5.34E-04	6.63E-01	-0.131124	-2.79367	-1.07056	-0.313648	-5.58991	-2.13776	2.6293	20.698	13.0756	7.95E-16	-3.18E-15	-3.18E-15	-0.761875	-12.0658	-7.84161	-1.34367	12.7287	-8.4589	3.89473	12.5743	3.02043	7.95E-16	-3.18E-15	-3.18E-15	0.207034	-15.0627	-0.556161	-0.625484	18.0616	-4.22221	1.8023	12.7065	-8.25904	-5.06E+00	5.02E+00	-2.00E+01	7.31423	11.1096	-32.8101	-3.0694	-16.842	-8.2788	1.27E-14	3.30E-14	3.18E-15
